<svg xmlns="http://www.w3.org/2000/svg" xmlns:xlink="http://www.w3.org/1999/xlink"  zoomAndPan="magnify" viewBox="463 656 572 235"  preserveAspectRatio="xMidYMid meet" version="1.0"><defs><g/></defs><g fill="#044336" fill-opacity="1"><g transform="translate(490.160151, 818.624909)"><g><path d="M 64.75 -65.5 L 52.59375 -66.25 L 52.59375 -40.421875 C 52.59375 -37.054688 53.117188 -34.625 54.171875 -33.125 C 55.234375 -31.625 57.226562 -30.875 60.15625 -30.875 C 63.09375 -30.875 65.335938 -30.78125 66.890625 -30.59375 C 68.453125 -30.40625 70.109375 -29.8125 71.859375 -28.8125 C 74.734375 -27.195312 76.171875 -23.019531 76.171875 -16.28125 C 76.171875 -8.414062 74.421875 -3.613281 70.921875 -1.875 C 69.054688 -1 67.40625 -0.46875 65.96875 -0.28125 C 64.53125 -0.09375 62.441406 0 59.703125 0 C 46.722656 0 36.863281 -2.929688 30.125 -8.796875 C 23.394531 -14.660156 20.03125 -24.578125 20.03125 -38.546875 L 20.03125 -66.25 C 17.65625 -65.875 15.09375 -65.6875 12.34375 -65.6875 C 9.601562 -65.6875 7.328125 -66.742188 5.515625 -68.859375 C 3.710938 -70.984375 2.8125 -74.601562 2.8125 -79.71875 C 2.8125 -84.832031 3.117188 -88.539062 3.734375 -90.84375 C 4.359375 -93.15625 5.234375 -94.8125 6.359375 -95.8125 C 8.359375 -97.4375 10.851562 -98.25 13.84375 -98.25 L 20.03125 -97.5 L 20.03125 -116.78125 C 20.03125 -119.644531 20.117188 -121.765625 20.296875 -123.140625 C 20.484375 -124.515625 21.078125 -126.007812 22.078125 -127.625 C 23.703125 -130.75 28.507812 -132.3125 36.5 -132.3125 C 44.976562 -132.3125 50.03125 -130.003906 51.65625 -125.390625 C 52.28125 -123.390625 52.59375 -120.207031 52.59375 -115.84375 L 52.59375 -97.5 C 58.082031 -98 62.226562 -98.25 65.03125 -98.25 C 67.832031 -98.25 69.953125 -98.15625 71.390625 -97.96875 C 72.828125 -97.78125 74.484375 -97.1875 76.359375 -96.1875 C 79.597656 -94.5625 81.21875 -89.757812 81.21875 -81.78125 C 81.21875 -73.914062 79.535156 -69.113281 76.171875 -67.375 C 74.296875 -66.5 72.640625 -65.96875 71.203125 -65.78125 C 69.773438 -65.59375 67.625 -65.5 64.75 -65.5 Z M 64.75 -65.5 "/></g></g></g><g fill="#044336" fill-opacity="1"><g transform="translate(574.184497, 818.624909)"><g><path d="M 102.546875 -61.09375 C 102.546875 -53.425781 100.644531 -47.75 96.84375 -44.0625 C 93.039062 -40.382812 88.832031 -38.546875 84.21875 -38.546875 L 39.859375 -38.546875 C 39.859375 -35.054688 41.914062 -32.125 46.03125 -29.75 C 50.15625 -27.382812 54.273438 -26.203125 58.390625 -26.203125 C 65.617188 -26.203125 71.296875 -26.953125 75.421875 -28.453125 L 77.46875 -29.1875 C 80.46875 -30.5625 82.96875 -31.25 84.96875 -31.25 C 88.957031 -31.25 92.382812 -28.441406 95.25 -22.828125 C 96.875 -19.460938 97.6875 -16.59375 97.6875 -14.21875 C 97.6875 -3.113281 84.398438 2.4375 57.828125 2.4375 C 48.597656 2.4375 40.394531 0.847656 33.21875 -2.328125 C 26.039062 -5.515625 20.457031 -9.726562 16.46875 -14.96875 C 8.601562 -25.070312 4.671875 -36.363281 4.671875 -48.84375 C 4.671875 -64.5625 9.753906 -77.128906 19.921875 -86.546875 C 30.097656 -95.972656 42.796875 -100.6875 58.015625 -100.6875 C 75.359375 -100.6875 88.082031 -94.570312 96.1875 -82.34375 C 100.425781 -75.851562 102.546875 -68.769531 102.546875 -61.09375 Z M 63.0625 -55.578125 C 67.800781 -55.578125 70.171875 -57.570312 70.171875 -61.5625 C 70.171875 -64.4375 69.078125 -66.742188 66.890625 -68.484375 C 64.710938 -70.234375 61.597656 -71.109375 57.546875 -71.109375 C 53.492188 -71.109375 49.46875 -69.453125 45.46875 -66.140625 C 41.476562 -62.835938 39.484375 -59.316406 39.484375 -55.578125 Z M 63.0625 -55.578125 "/></g></g></g><g fill="#044336" fill-opacity="1"><g transform="translate(681.413786, 818.624909)"><g><path d="M 102.546875 -61.09375 C 102.546875 -53.425781 100.644531 -47.75 96.84375 -44.0625 C 93.039062 -40.382812 88.832031 -38.546875 84.21875 -38.546875 L 39.859375 -38.546875 C 39.859375 -35.054688 41.914062 -32.125 46.03125 -29.75 C 50.15625 -27.382812 54.273438 -26.203125 58.390625 -26.203125 C 65.617188 -26.203125 71.296875 -26.953125 75.421875 -28.453125 L 77.46875 -29.1875 C 80.46875 -30.5625 82.96875 -31.25 84.96875 -31.25 C 88.957031 -31.25 92.382812 -28.441406 95.25 -22.828125 C 96.875 -19.460938 97.6875 -16.59375 97.6875 -14.21875 C 97.6875 -3.113281 84.398438 2.4375 57.828125 2.4375 C 48.597656 2.4375 40.394531 0.847656 33.21875 -2.328125 C 26.039062 -5.515625 20.457031 -9.726562 16.46875 -14.96875 C 8.601562 -25.070312 4.671875 -36.363281 4.671875 -48.84375 C 4.671875 -64.5625 9.753906 -77.128906 19.921875 -86.546875 C 30.097656 -95.972656 42.796875 -100.6875 58.015625 -100.6875 C 75.359375 -100.6875 88.082031 -94.570312 96.1875 -82.34375 C 100.425781 -75.851562 102.546875 -68.769531 102.546875 -61.09375 Z M 63.0625 -55.578125 C 67.800781 -55.578125 70.171875 -57.570312 70.171875 -61.5625 C 70.171875 -64.4375 69.078125 -66.742188 66.890625 -68.484375 C 64.710938 -70.234375 61.597656 -71.109375 57.546875 -71.109375 C 53.492188 -71.109375 49.46875 -69.453125 45.46875 -66.140625 C 41.476562 -62.835938 39.484375 -59.316406 39.484375 -55.578125 Z M 63.0625 -55.578125 "/></g></g></g><g fill="#044336" fill-opacity="1"><g transform="translate(788.643074, 818.624909)"><g><path d="M 7.484375 26.765625 L 7.484375 -82.53125 C 7.484375 -85.394531 7.578125 -87.515625 7.765625 -88.890625 C 7.953125 -90.265625 8.484375 -91.828125 9.359375 -93.578125 C 11.109375 -96.941406 15.285156 -98.625 21.890625 -98.625 C 28.503906 -98.625 32.960938 -97.78125 35.265625 -96.09375 C 37.578125 -94.414062 38.921875 -91.953125 39.296875 -88.703125 C 44.035156 -95.191406 51.488281 -98.4375 61.65625 -98.4375 C 71.832031 -98.4375 81.472656 -93.628906 90.578125 -84.015625 C 99.679688 -74.410156 104.234375 -63.242188 104.234375 -50.515625 C 104.234375 -37.796875 99.710938 -26.632812 90.671875 -17.03125 C 81.628906 -7.425781 71.988281 -2.625 61.75 -2.625 C 51.519531 -2.625 44.097656 -5.492188 39.484375 -11.234375 L 39.484375 26.578125 C 39.484375 29.441406 39.390625 31.5625 39.203125 32.9375 C 39.015625 34.3125 38.453125 35.898438 37.515625 37.703125 C 36.585938 39.515625 35 40.796875 32.75 41.546875 C 30.5 42.296875 27.441406 42.671875 23.578125 42.671875 C 19.710938 42.671875 16.625 42.296875 14.3125 41.546875 C 12.007812 40.796875 10.390625 39.546875 9.453125 37.796875 C 8.515625 36.054688 7.953125 34.5 7.765625 33.125 C 7.578125 31.75 7.484375 29.628906 7.484375 26.765625 Z M 44.53125 -61.375 C 41.664062 -58.007812 40.234375 -54.332031 40.234375 -50.34375 C 40.234375 -46.351562 41.695312 -42.703125 44.625 -39.390625 C 47.5625 -36.085938 51.304688 -34.4375 55.859375 -34.4375 C 60.410156 -34.4375 64.273438 -36.054688 67.453125 -39.296875 C 70.640625 -42.546875 72.234375 -46.226562 72.234375 -50.34375 C 72.234375 -54.457031 70.734375 -58.164062 67.734375 -61.46875 C 64.742188 -64.78125 60.847656 -66.4375 56.046875 -66.4375 C 51.242188 -66.4375 47.40625 -64.75 44.53125 -61.375 Z M 44.53125 -61.375 "/></g></g></g><g fill="#044336" fill-opacity="1"><g transform="translate(897.556601, 818.624909)"><g><path d="M 4.671875 -49.21875 C 4.671875 -64.1875 9.910156 -76.535156 20.390625 -86.265625 C 30.878906 -96.003906 42.859375 -100.875 56.328125 -100.875 C 69.804688 -100.875 81.722656 -96.035156 92.078125 -86.359375 C 102.429688 -76.691406 107.609375 -64.375 107.609375 -49.40625 C 107.609375 -39.050781 104.925781 -29.847656 99.5625 -21.796875 C 94.195312 -13.753906 87.675781 -7.828125 80 -4.015625 C 72.332031 -0.210938 64.378906 1.6875 56.140625 1.6875 C 47.910156 1.6875 39.925781 -0.335938 32.1875 -4.390625 C 24.445312 -8.453125 17.925781 -14.441406 12.625 -22.359375 C 7.320312 -30.285156 4.671875 -39.238281 4.671875 -49.21875 Z M 43.78125 -35.828125 C 47.78125 -32.773438 51.835938 -31.25 55.953125 -31.25 C 60.066406 -31.25 64.179688 -32.804688 68.296875 -35.921875 C 72.421875 -39.046875 74.484375 -43.664062 74.484375 -49.78125 C 74.484375 -55.894531 72.546875 -60.445312 68.671875 -63.4375 C 64.804688 -66.4375 60.628906 -67.9375 56.140625 -67.9375 C 51.648438 -67.9375 47.46875 -66.375 43.59375 -63.25 C 39.726562 -60.132812 37.796875 -55.550781 37.796875 -49.5 C 37.796875 -43.445312 39.789062 -38.890625 43.78125 -35.828125 Z M 43.78125 -35.828125 "/></g></g></g></svg>