<svg xmlns="http://www.w3.org/2000/svg" viewBox="0 0 120 100" aria-label="TEEPO">
  <defs>
    <linearGradient id="fav-page" x1="0" y1="0" x2="0" y2="1">
      <stop offset="0%" stop-color="#fffaf0"/>
      <stop offset="100%" stop-color="#f5e9c8"/>
    </linearGradient>
    <linearGradient id="fav-spine" x1="0" y1="0" x2="0" y2="1">
      <stop offset="0%" stop-color="#a3c98a"/>
      <stop offset="100%" stop-color="#7fb069"/>
    </linearGradient>
  </defs>
  <ellipse cx="60" cy="92" rx="46" ry="4.5" fill="#5b4634" opacity=".15"/>
  <path d="M 60 24 C 56 19, 50 18, 44 19 L 16 25 C 10 26, 8 30, 8 36 L 8 74 C 8 80, 12 82, 18 81 L 46 78 C 54 78, 58 80, 60 84 Z" fill="url(#fav-page)" stroke="#5b4634" stroke-width="1.5" stroke-opacity=".35"/>
  <path d="M 60 24 C 64 19, 70 18, 76 19 L 104 25 C 110 26, 112 30, 112 36 L 112 74 C 112 80, 108 82, 102 81 L 74 78 C 66 78, 62 80, 60 84 Z" fill="url(#fav-page)" stroke="#5b4634" stroke-width="1.5" stroke-opacity=".35"/>
  <path d="M 60 26 Q 50 28, 46 30 L 46 74 Q 50 76, 60 78 Z" fill="#e8d8a8" opacity=".5"/>
  <path d="M 60 26 Q 70 28, 74 30 L 74 74 Q 70 76, 60 78 Z" fill="#e8d8a8" opacity=".5"/>
  <rect x="57.5" y="22" width="5" height="62" rx="2.5" fill="url(#fav-spine)"/>
  <path d="M 92 24 L 92 50 L 96 46 L 100 50 L 100 24 Z" fill="#d97706"/>
  <path d="M 92 24 L 100 24 L 100 28 L 92 28 Z" fill="#b45309"/>
</svg>
